<?xml version="1.0" standalone="no"?>
<!DOCTYPE svg PUBLIC "-//W3C//DTD SVG 20010904//EN"
 "http://www.w3.org/TR/2001/REC-SVG-20010904/DTD/svg10.dtd">
<svg version="1.0" xmlns="http://www.w3.org/2000/svg"
 width="1200.000000pt" height="1200.000000pt" viewBox="0 0 1200.000000 1200.000000"
 preserveAspectRatio="xMidYMid meet">
<metadata>
Created by potrace 1.11, written by Peter Selinger 2001-2013
</metadata>
<g transform="translate(0.000000,1200.000000) scale(0.100000,-0.100000)"
fill="#000000" stroke="none">
<path d="M0 6000 l0 -6000 6000 0 6000 0 0 6000 0 6000 -6000 0 -6000 0 0
-6000z m6321 4610 c273 -22 532 -63 789 -126 136 -33 548 -164 580 -184 12 -8
-6 -51 -103 -247 -65 -131 -125 -248 -132 -259 l-14 -22 -155 54 c-416 143
-816 208 -1286 208 -288 0 -398 -8 -660 -50 -1102 -175 -2107 -834 -2722
-1785 -343 -529 -546 -1098 -625 -1749 -25 -206 -24 -686 1 -895 72 -598 254
-1136 556 -1638 l65 -108 7 98 c19 264 53 451 119 660 128 398 363 792 698
1167 717 803 1871 1394 3043 1557 l86 12 70 146 c39 80 247 508 462 951 216
443 496 1019 622 1280 127 261 235 480 240 485 22 24 458 -224 710 -403 l117
-84 -19 -41 c-10 -23 -64 -141 -120 -262 -56 -121 -128 -276 -160 -345 -31
-69 -100 -217 -152 -330 -53 -113 -195 -419 -316 -680 -121 -261 -293 -632
-382 -825 -90 -192 -207 -447 -262 -565 -220 -477 -252 -546 -265 -561 -7 -8
-13 -22 -13 -29 0 -8 -51 -124 -114 -259 -63 -136 -226 -484 -361 -776 -323
-694 -387 -835 -420 -925 -60 -170 -81 -321 -51 -378 21 -39 75 -89 118 -106
87 -37 227 -4 378 86 135 82 525 362 895 643 239 182 331 234 450 256 133 25
270 -25 374 -137 190 -203 154 -418 -119 -717 -231 -251 -818 -667 -1285 -908
-355 -184 -655 -273 -966 -286 -287 -12 -478 51 -623 208 -65 70 -127 171
-165 268 l-27 70 -89 -64 c-366 -261 -778 -441 -1075 -471 -39 -3 -70 -10 -70
-14 0 -13 430 -225 565 -278 701 -275 1447 -348 2195 -216 657 116 1273 398
1815 832 246 197 566 540 762 817 526 744 785 1671 723 2587 -66 969 -461
1857 -1132 2544 -82 83 -148 154 -148 158 0 9 240 529 249 538 3 4 68 -50 143
-120 693 -641 1176 -1488 1372 -2406 77 -357 101 -591 101 -981 0 -305 -9
-432 -46 -685 -202 -1358 -1000 -2556 -2181 -3271 -156 -95 -497 -266 -653
-328 -319 -127 -661 -221 -1000 -276 -399 -64 -892 -72 -1305 -19 -1388 176
-2627 984 -3354 2187 -353 584 -563 1209 -643 1909 -24 216 -24 750 0 966 101
885 416 1667 951 2357 574 741 1397 1308 2288 1576 332 100 657 161 998 188
155 12 516 13 671 1z"/>
<path d="M5890 6136 c-810 -256 -1567 -811 -1955 -1431 -217 -347 -287 -740
-168 -944 91 -155 262 -215 458 -162 212 58 544 279 823 547 l102 99 164 355
c90 195 290 628 445 962 155 334 281 610 281 613 0 8 -9 6 -150 -39z"/>
</g>
</svg>
